<svg width="402" height="297" viewBox="0 0 402 297" fill="none" xmlns="http://www.w3.org/2000/svg">
    <g clip-path="url(#clip0_210_861)">
    <path d="M241.994 118.655C241.812 118.655 241.633 118.601 241.481 118.501C241.272 118.365 241.127 118.151 241.076 117.907C241.026 117.664 241.074 117.41 241.21 117.202C242.658 114.993 244.043 112.696 245.323 110.374C245.443 110.156 245.645 109.995 245.884 109.926C246.123 109.857 246.38 109.886 246.598 110.006C246.815 110.126 246.976 110.328 247.045 110.567C247.114 110.806 247.085 111.062 246.966 111.28C245.66 113.644 244.25 115.982 242.777 118.229C242.691 118.359 242.574 118.466 242.437 118.54C242.3 118.614 242.146 118.653 241.99 118.653M250.854 102.132C250.727 102.132 250.601 102.106 250.484 102.056C250.371 102.007 250.268 101.937 250.182 101.849C250.096 101.761 250.028 101.656 249.982 101.542C249.937 101.427 249.914 101.305 249.915 101.182C249.917 101.059 249.943 100.937 249.991 100.824C251.034 98.3914 251.999 95.8879 252.858 93.3839C252.939 93.1485 253.11 92.9547 253.333 92.8453C253.557 92.7358 253.815 92.7196 254.05 92.8002C254.167 92.8401 254.275 92.9027 254.367 92.9842C254.46 93.0658 254.535 93.1648 254.589 93.2755C254.644 93.3862 254.675 93.5065 254.683 93.6296C254.691 93.7526 254.674 93.8759 254.634 93.9925C253.76 96.5406 252.78 99.0886 251.717 101.563C251.645 101.732 251.524 101.876 251.371 101.977C251.217 102.078 251.038 102.132 250.854 102.132ZM256.716 84.3244C256.644 84.3244 256.571 84.316 256.501 84.2995C256.259 84.2427 256.049 84.0919 255.917 83.8804C255.786 83.6688 255.744 83.4138 255.801 83.1715C256.252 81.2523 256.653 79.2979 256.994 77.3631C257.033 77.1446 257.069 76.9334 257.103 76.7296C255.892 76.9939 254.657 77.1298 253.418 77.1349H253.372C253.123 77.1337 252.884 77.0337 252.709 76.8569C252.534 76.6801 252.436 76.441 252.437 76.1922C252.438 75.9441 252.538 75.7066 252.714 75.5316C252.889 75.3566 253.127 75.2582 253.376 75.2581H253.418C255.967 75.2 258.477 74.6218 260.794 73.559C260.907 73.51 261.029 73.4837 261.152 73.4817C261.276 73.4797 261.398 73.502 261.513 73.5474C261.628 73.5927 261.732 73.6601 261.821 73.7459C261.91 73.8317 261.98 73.934 262.029 74.0472C262.128 74.2756 262.132 74.5338 262.041 74.7653C261.949 74.9967 261.769 75.1823 261.541 75.2812C260.74 75.6294 259.921 75.9364 259.089 76.2008C259.018 76.6641 258.937 77.1552 258.843 77.6874C258.496 79.6563 258.09 81.6455 257.629 83.5988C257.581 83.8048 257.465 83.9885 257.299 84.12C257.133 84.2515 256.928 84.3231 256.716 84.3233M244.124 72.5884C243.972 72.5886 243.823 72.5521 243.689 72.4821C243.554 72.4122 243.439 72.3107 243.352 72.1865C242.352 70.7773 241.747 69.1268 241.598 67.4055C241.583 67.2022 241.574 66.9949 241.574 66.7887C241.577 65.7229 241.777 64.6667 242.163 63.6732C242.207 63.5581 242.274 63.4528 242.358 63.3634C242.443 63.274 242.545 63.2021 242.658 63.152C242.77 63.1019 242.892 63.0745 243.015 63.0713C243.138 63.0681 243.261 63.0892 243.376 63.1335C243.491 63.1776 243.597 63.244 243.686 63.3288C243.775 63.4137 243.847 63.5153 243.897 63.6279C243.948 63.7405 243.975 63.8619 243.978 63.9852C243.981 64.1084 243.96 64.231 243.916 64.3461C243.613 65.1249 243.456 65.953 243.453 66.7887C243.453 66.9474 243.459 67.1067 243.471 67.2624C243.594 68.6499 244.086 69.9792 244.894 71.1135C245.037 71.3176 245.092 71.5698 245.049 71.8148C245.005 72.0599 244.867 72.2777 244.663 72.4205C244.505 72.5299 244.318 72.5885 244.127 72.5884M270.144 69.5539C270.011 69.5542 269.879 69.526 269.758 69.4713C269.636 69.4166 269.528 69.3366 269.44 69.2366C269.275 69.0498 269.192 68.8054 269.207 68.557C269.223 68.3085 269.336 68.0764 269.523 67.9116C271.485 66.1798 273.255 64.242 274.802 62.1316C274.875 62.0321 274.967 61.948 275.072 61.884C275.177 61.8199 275.294 61.7773 275.416 61.7585C275.538 61.7396 275.662 61.745 275.782 61.7743C275.902 61.8035 276.015 61.8561 276.114 61.9289C276.214 62.0017 276.298 62.0934 276.362 62.1987C276.426 62.304 276.469 62.421 276.487 62.5428C276.506 62.6646 276.501 62.7889 276.472 62.9086C276.442 63.0284 276.39 63.1412 276.317 63.2406C274.69 65.4607 272.829 67.4993 270.765 69.3211C270.594 69.4715 270.373 69.5539 270.144 69.5528M257.388 65.8784C257.208 65.8785 257.032 65.8267 256.88 65.7293C256.729 65.6318 256.608 65.4928 256.533 65.3288C256.038 64.2192 255.325 63.2202 254.436 62.391C253.548 61.5618 252.502 60.9193 251.36 60.5014C251.243 60.4632 251.135 60.4023 251.041 60.3221C250.947 60.2419 250.87 60.1441 250.815 60.0343C250.759 59.9244 250.725 59.8046 250.716 59.6818C250.706 59.559 250.721 59.4355 250.759 59.3183C250.798 59.2011 250.859 59.0926 250.939 58.999C251.019 58.9054 251.117 58.8285 251.227 58.7726C251.337 58.7168 251.457 58.6832 251.58 58.6737C251.703 58.6642 251.826 58.679 251.944 58.7172C253.331 59.2187 254.603 59.9935 255.685 60.9954C256.767 61.9974 257.636 63.2063 258.242 64.5505C258.346 64.7768 258.355 65.0349 258.268 65.2681C258.181 65.5012 258.005 65.6903 257.779 65.7938C257.657 65.8495 257.524 65.8783 257.39 65.8784" fill="#C1BDF2"/>
    <path d="M347.725 54.0671C347.575 54.6924 347.263 55.2672 346.82 55.7336C346.377 56.2 345.819 56.5416 345.202 56.724L301.469 69.6165C300.575 69.8812 299.613 69.7938 298.782 69.3721L279.384 59.5599C278.937 59.3365 278.542 59.0231 278.222 58.6395C277.902 58.2559 277.665 57.8104 277.526 57.3309C277.383 56.8527 277.339 56.3501 277.399 55.8544C277.459 55.3587 277.621 54.8808 277.874 54.4505L288.841 35.6876C289.311 34.882 290.071 34.2868 290.966 34.0244L334.699 21.1314C335.629 20.858 336.631 20.965 337.483 21.4288C338.335 21.8926 338.968 22.6753 339.244 23.6053L347.675 52.1815C347.856 52.7953 347.873 53.4461 347.723 54.0682" fill="#9191C9"/>
    <path d="M283.841 30.1607L277.392 55.4413C277.277 55.9241 277.264 56.4256 277.354 56.9137C277.444 57.4018 277.634 57.8658 277.913 58.2762C278.193 58.6867 278.554 59.0344 278.975 59.2974C279.396 59.5604 279.868 59.7328 280.359 59.8036L306.248 63.1045C307 63.2046 307.763 63.026 308.392 62.6024L349.326 34.779C350.038 34.26 350.516 33.4795 350.653 32.6089C350.791 31.7382 350.577 30.8486 350.06 30.1352L330.62 1.55605C330.146 0.812363 329.397 0.286758 328.537 0.0945879C327.676 -0.0975818 326.775 0.059391 326.03 0.531051L285.096 28.3545C284.47 28.7836 284.024 29.427 283.841 30.163M291.792 48.8442C292.045 49.2159 292.222 49.6338 292.314 50.0739C292.405 50.5141 292.409 50.9679 292.325 51.4095C292.24 51.8511 292.07 52.2719 291.823 52.6477C291.577 53.0235 291.258 53.347 290.886 53.5997C290.135 54.1103 289.212 54.3017 288.32 54.1319C287.427 53.962 286.639 53.4448 286.128 52.694C285.875 52.3223 285.698 51.9044 285.607 51.4642C285.516 51.024 285.512 50.5701 285.596 50.1285C285.68 49.6869 285.851 49.2663 286.098 48.8905C286.345 48.5147 286.663 48.1912 287.035 47.9385C287.407 47.6857 287.825 47.5086 288.265 47.4173C288.705 47.326 289.16 47.3223 289.601 47.4064C290.043 47.4905 290.464 47.6608 290.84 47.9075C291.216 48.1541 291.539 48.4725 291.792 48.8442Z" fill="#C1BDF2"/>
    <path d="M310.648 24.7159C312.012 26.732 313.182 28.6167 314.159 30.3701C315.12 32.0996 316.044 33.8534 316.932 35.6315L314.844 37.0441C313.523 35.5582 312.238 34.048 310.99 32.5134C309.725 30.9548 308.411 29.1675 307.046 27.1514L302.466 20.3833L306.067 17.9478L310.648 24.7159ZM322.248 40.5381C322.686 41.1861 322.852 41.8963 322.745 42.6685C322.637 43.4408 322.212 44.0786 321.467 44.5819C320.723 45.0853 319.972 45.2431 319.215 45.0553C318.458 44.8676 317.861 44.4497 317.422 43.8017C316.983 43.1537 316.818 42.4435 316.925 41.6713C317.032 40.899 317.458 40.2612 318.203 39.7579C318.947 39.2545 319.698 39.0967 320.455 39.2845C321.212 39.4722 321.809 39.8901 322.248 40.5381Z" fill="white"/>
    <path d="M341.333 90.2834L307.071 87.7574C307.068 87.7571 307.065 87.7571 307.062 87.7574C307.015 87.7539 306.969 87.7539 306.923 87.7539C306.899 87.7539 306.876 87.7539 306.852 87.7539C306.829 87.7539 306.795 87.758 306.77 87.7603C306.486 87.7801 306.21 87.859 305.959 87.9919C305.941 88.0012 305.922 88.0093 305.905 88.0197C305.887 88.0301 305.866 88.0446 305.847 88.0562C305.672 88.1637 305.514 88.297 305.379 88.4517C305.353 88.4807 305.327 88.5096 305.303 88.5397C305.291 88.5548 305.281 88.571 305.27 88.5866C305.24 88.6272 305.212 88.6677 305.183 88.71L305.179 88.7175L273.406 139.671L89.7459 90.4768C89.4401 90.395 89.1196 90.3849 88.8093 90.4473C88.499 90.5097 88.2073 90.6429 87.9569 90.8365C87.7068 91.0301 87.5047 91.2788 87.3664 91.5632C87.2282 91.8477 87.1575 92.1602 87.1598 92.4765L87.9604 198.026C87.9636 198.475 88.1142 198.911 88.3889 199.267C88.6637 199.623 89.0476 199.878 89.4817 199.995C89.488 199.995 89.495 199.995 89.5014 199.998L89.5159 200.004L190.334 227.008L191.444 227.305L217.525 234.291H217.532L217.546 234.294L228.98 237.357C234.467 238.827 238.096 241.353 239.765 244.874C241.2 247.896 241.289 251.805 240.033 256.494C238.956 260.494 236.335 263.904 232.746 265.975C229.157 268.047 224.893 268.61 220.888 267.542L47.9728 221.227C47.4466 221.086 46.8859 221.16 46.414 221.432C45.9422 221.704 45.5979 222.153 45.4568 222.679C45.3869 222.939 45.3691 223.211 45.4043 223.479C45.4395 223.746 45.527 224.004 45.6619 224.238C45.7968 224.471 45.9765 224.676 46.1906 224.84C46.4047 225.004 46.6491 225.125 46.9098 225.195L219.825 271.51C224.882 272.858 230.267 272.146 234.8 269.531C239.332 266.915 242.641 262.609 244.002 257.557C245.518 251.9 245.341 247.041 243.477 243.113C241.268 238.457 236.748 235.185 230.043 233.389L221.274 231.041L276.076 143.155C276.081 143.147 276.086 143.138 276.092 143.13L308.012 91.9414L341.037 94.3736C341.306 94.3937 341.576 94.3605 341.833 94.276C342.089 94.1914 342.326 94.0573 342.531 93.8811C342.735 93.7049 342.903 93.4901 343.024 93.2491C343.145 93.0081 343.218 92.7456 343.238 92.4765C343.258 92.2074 343.225 91.937 343.14 91.6807C343.056 91.4245 342.921 91.1874 342.745 90.983C342.569 90.7786 342.354 90.611 342.113 90.4896C341.872 90.3683 341.609 90.2957 341.34 90.2759M233.501 133.227L224.048 153.492L176.534 140.773L182.235 119.504L233.501 133.227ZM167.501 167.083L161.307 190.193L124.85 180.427L126.968 156.226L167.501 167.083ZM127.138 154.285L129.256 130.084L174.192 142.12L167.998 165.226L127.138 154.285ZM169.354 167.577L212.132 179.036L201.861 201.053L163.159 190.687L169.354 167.577ZM169.85 165.724L176.044 142.614L223.226 155.252L212.955 177.269L169.85 165.724ZM180.39 118.998L174.689 140.267L129.426 128.143L131.375 105.869L180.39 118.998ZM91.2914 95.1334L129.492 105.365L127.543 127.639L91.4646 117.976L91.2914 95.1334ZM91.4797 119.965L127.373 129.578L125.255 153.779L91.668 144.783L91.4797 119.965ZM91.6831 146.772L125.085 155.719L122.967 179.92L91.8713 171.591L91.6831 146.772ZM92.0596 196.422L91.8858 173.579L122.796 181.86L120.847 204.134L92.0596 196.422ZM122.728 204.637L124.678 182.363L160.808 192.041L155.107 213.31L122.728 204.637ZM156.959 213.805L162.66 192.536L201.036 202.815L191.583 223.08L156.959 213.805ZM217.127 229.922L193.464 223.583L202.917 203.319L229.307 210.388L217.127 229.922ZM230.368 208.687L203.739 201.555L214.011 179.538L243.602 187.463L230.368 208.687ZM244.662 185.763L214.833 177.771L225.104 155.754L257.896 164.537L244.662 185.763ZM258.957 162.839L225.927 153.992L235.38 133.727L271.137 143.305L258.957 162.839Z" fill="#49497C"/>
    <path d="M224.949 272.569C223.185 272.568 221.428 272.335 219.725 271.878L46.8098 225.562C46.187 225.394 45.6562 224.987 45.3338 224.429C45.0114 223.871 44.9238 223.207 45.0904 222.585C45.2576 221.962 45.6652 221.431 46.2237 221.109C46.7821 220.787 47.4457 220.699 48.0686 220.866L220.984 267.182C224.892 268.223 229.053 267.673 232.555 265.652C236.057 263.631 238.614 260.303 239.666 256.4C240.899 251.8 240.817 247.977 239.421 245.038C237.802 241.625 234.256 239.164 228.878 237.724L217.452 234.663C217.445 234.662 217.439 234.661 217.432 234.659L217.406 234.652L89.4002 200.365L89.38 200.36C88.8666 200.222 88.4127 199.919 88.0875 199.498C87.7623 199.077 87.5837 198.562 87.5789 198.03L86.7782 92.4811C86.7764 92.1068 86.8605 91.7371 87.0241 91.4005C87.1877 91.0638 87.4265 90.7692 87.722 90.5394C88.0189 90.3114 88.3642 90.1545 88.7312 90.0808C89.0983 90.0071 89.4774 90.0186 89.8394 90.1143L273.23 139.236L304.86 88.5067L304.865 88.5003C304.895 88.4529 304.927 88.4077 304.96 88.3631L304.968 88.3527C304.978 88.3376 304.988 88.3231 304.999 88.3092C305.024 88.2774 305.049 88.2513 305.074 88.2207L305.09 88.2033C305.25 88.0202 305.436 87.8625 305.644 87.7354L305.657 87.7261C305.675 87.7145 305.693 87.7029 305.715 87.6919C305.736 87.6809 305.749 87.674 305.766 87.6659L305.778 87.6595C306.076 87.5007 306.404 87.4062 306.741 87.3821H306.763C306.788 87.3821 306.813 87.3775 306.839 87.3769C306.865 87.3763 306.883 87.3769 306.904 87.3769H306.922C306.972 87.3769 307.022 87.3769 307.073 87.3769H307.079H307.102L341.359 89.9024C342.003 89.9501 342.6 90.251 343.022 90.7391C343.443 91.2272 343.653 91.8625 343.606 92.5054C343.583 92.824 343.498 93.1349 343.354 93.4202C343.211 93.7055 343.012 93.9594 342.77 94.1674C342.528 94.3765 342.247 94.5358 341.944 94.636C341.641 94.7362 341.321 94.7753 341.002 94.7511L308.205 92.3328L221.861 230.811L230.139 233.029C236.955 234.855 241.557 238.194 243.816 242.954C245.72 246.966 245.901 251.913 244.363 257.658C243.685 260.211 242.507 262.604 240.898 264.698C239.288 266.793 237.279 268.547 234.986 269.861C231.937 271.631 228.475 272.565 224.949 272.569ZM47.4394 221.537C47.0699 221.537 46.7108 221.659 46.4175 221.884C46.1243 222.108 45.9134 222.424 45.8174 222.78C45.7032 223.21 45.7639 223.667 45.9861 224.052C46.2084 224.436 46.5741 224.717 47.0033 224.833L219.919 271.149C222.374 271.812 224.936 271.982 227.458 271.649C229.979 271.315 232.409 270.486 234.607 269.207C236.815 267.944 238.75 266.255 240.299 264.239C241.85 262.223 242.984 259.919 243.637 257.461C245.129 251.895 244.961 247.122 243.136 243.276C240.976 238.725 236.539 235.522 229.946 233.755L220.685 231.275L220.953 230.843L307.81 91.551L341.062 94.0024C341.282 94.0186 341.502 93.9912 341.711 93.9216C341.92 93.852 342.113 93.7417 342.279 93.597C342.446 93.4537 342.583 93.2785 342.682 93.0817C342.781 92.8848 342.84 92.6702 342.855 92.4504C342.887 92.0072 342.742 91.5694 342.452 91.2329C342.161 90.8964 341.749 90.6887 341.306 90.6552L307.054 88.1326H307.036C306.998 88.1297 306.96 88.1326 306.923 88.1326H306.865H306.834L306.797 88.1361C306.565 88.1522 306.339 88.2171 306.133 88.3266L306.099 88.344L306.075 88.3585L306.041 88.3799C305.898 88.4673 305.77 88.5761 305.66 88.7025L305.642 88.7227C305.626 88.7395 305.611 88.7571 305.597 88.7754L305.592 88.7824L305.569 88.8131C305.546 88.8455 305.522 88.8785 305.5 88.9127L305.49 88.9283L273.576 140.109L273.306 140.037L89.6459 90.8434C89.3962 90.7773 89.1348 90.7694 88.8816 90.8202C88.6284 90.871 88.3902 90.9792 88.1854 91.1364C87.9815 91.2949 87.8167 91.4981 87.7038 91.7304C87.591 91.9626 87.5329 92.2177 87.5343 92.4759L88.3349 198.025C88.338 198.39 88.4596 198.743 88.6814 199.033C88.9031 199.322 89.213 199.531 89.5642 199.629L89.5943 199.635L89.6215 199.643L229.075 236.995C234.673 238.495 238.384 241.092 240.103 244.714C241.576 247.82 241.675 251.817 240.392 256.594C239.476 259.996 237.464 263 234.668 265.144C231.873 267.289 228.448 268.453 224.925 268.457C223.527 268.456 222.135 268.272 220.785 267.91L47.8699 221.594C47.7284 221.555 47.5825 221.536 47.436 221.536M217.29 230.368L192.924 223.841L202.7 202.883L229.888 210.165L217.29 230.368ZM193.988 223.345L216.946 229.495L228.706 210.63L203.113 203.775L193.988 223.345ZM191.783 223.535L156.489 214.082L162.386 192.085L201.559 202.577L191.783 223.535ZM157.413 213.549L191.367 222.641L200.496 203.071L162.919 193.006L157.413 213.549ZM155.365 213.78L122.317 204.928L124.332 181.891L161.262 191.783L155.365 213.78ZM123.123 204.364L154.832 212.857L160.338 192.316L125.006 182.853L123.123 204.364ZM230.532 209.133L203.201 201.814L213.796 179.102L244.184 187.242L230.532 209.133ZM204.263 201.315L230.187 208.259L243.003 187.704L214.211 179.991L204.263 201.315ZM121.176 204.621L91.6758 196.72L91.4967 173.093L123.191 181.582L121.176 204.621ZM92.426 196.14L120.502 203.661L122.385 182.149L92.2608 174.08L92.426 196.14ZM202.059 201.505L162.686 190.959L169.076 167.122L169.44 167.219L212.653 178.794L202.059 201.505ZM163.61 190.427L201.642 200.613L211.589 179.289L169.61 168.045L163.61 190.427ZM161.563 190.658L161.198 190.561L124.436 180.716L126.621 155.752L167.953 166.823L161.563 190.658ZM125.24 180.149L161.027 189.735L167.026 167.354L127.291 156.711L125.24 180.149ZM244.823 186.207L214.29 178.029L224.885 155.317L258.475 164.315L244.823 186.207ZM215.354 177.533L244.479 185.335L257.296 164.78L225.301 156.209L215.354 177.533ZM123.292 180.408L91.4851 171.889L91.2911 146.288L125.477 155.444L123.292 180.408ZM92.2354 171.309L122.619 179.447L124.671 156.009L92.0552 147.272L92.2354 171.309ZM213.149 177.723L212.844 177.642L169.375 165.998L175.765 142.16L223.743 155.012L213.149 177.723ZM170.299 165.466L212.734 176.832L222.681 155.508L176.304 143.089L170.299 165.466ZM168.251 165.697L167.887 165.6L126.721 154.574L128.906 129.609L174.641 141.86L168.251 165.697ZM127.525 154.009L167.715 164.774L173.714 142.393L129.577 130.571L127.525 154.009ZM259.114 163.283L225.382 154.249L235.158 133.291L271.712 143.082L259.114 163.283ZM226.445 153.752L258.771 162.41L270.531 143.546L235.572 134.181L226.445 153.752ZM125.577 154.268L91.2818 145.081L91.0878 119.48L127.774 129.307L125.577 154.268ZM92.0292 144.502L124.905 153.307L126.955 129.868L91.849 120.465L92.0292 144.502ZM224.24 153.941L223.935 153.859L176.062 141.036L181.959 119.039L234.017 132.983L224.24 153.941ZM176.986 140.506L223.824 153.051L232.953 133.481L182.495 119.965L176.986 140.506ZM174.939 140.737L129.006 128.434L131.023 105.398L131.457 105.514L180.835 118.74L174.939 140.737ZM129.811 127.87L174.403 139.814L179.907 119.274L131.691 106.36L129.811 127.87ZM127.863 128.129L91.0733 118.275L90.8942 94.6475L129.882 105.089L127.863 128.129ZM91.8235 117.695L127.19 127.168L129.073 105.657L91.6561 95.6349L91.8235 117.695Z" fill="#49497C"/>
    <path d="M90.1052 241.247C87.0518 240.433 83.8 240.863 81.0633 242.442C78.3265 244.021 76.3281 246.622 75.5066 249.672C74.6923 252.724 75.1222 255.975 76.7021 258.71C78.2821 261.446 80.883 263.444 83.9344 264.265C86.9879 265.079 90.2396 264.649 92.9764 263.07C95.7132 261.49 97.7115 258.89 98.5331 255.84C99.3474 252.788 98.9174 249.537 97.3373 246.801C95.7573 244.065 93.1568 242.068 90.1052 241.247ZM94.5654 254.777C94.0269 256.776 92.7175 258.479 90.9242 259.514C89.1308 260.549 87.0001 260.831 84.9992 260.298C82.9998 259.759 81.2955 258.45 80.2603 256.658C79.225 254.865 78.9432 252.735 79.4766 250.735C80.015 248.737 81.3245 247.033 83.1176 245.998C84.9108 244.963 87.0414 244.681 89.0422 245.214C91.0417 245.752 92.7461 247.061 93.7815 248.854C94.8169 250.647 95.0988 252.777 94.5654 254.777Z" fill="#49497C"/>
    <path d="M87.0171 265.048C85.9435 265.047 84.8747 264.906 83.8379 264.627C80.6894 263.78 78.0056 261.719 76.3755 258.896C74.7454 256.074 74.3021 252.72 75.143 249.571C75.9903 246.423 78.0521 243.74 80.8759 242.111C83.6997 240.481 87.0549 240.038 90.2051 240.879C91.7663 241.294 93.2296 242.014 94.5103 242.998C95.791 243.982 96.8636 245.211 97.6661 246.612C98.4782 248.007 99.0053 249.55 99.2171 251.15C99.4289 252.751 99.3212 254.377 98.9 255.936C98.196 258.548 96.6508 260.856 94.5033 262.503C92.3559 264.15 89.7256 265.044 87.0189 265.048M87.0247 241.215C84.4841 241.218 82.0152 242.057 79.9995 243.603C77.9838 245.149 76.5336 247.315 75.8729 249.768C75.0846 252.723 75.5012 255.871 77.0313 258.519C78.5614 261.168 81.0801 263.103 84.0349 263.898C85.008 264.159 86.0112 264.292 87.0189 264.293C89.5596 264.29 92.0286 263.45 94.0443 261.904C96.06 260.358 97.5101 258.192 98.1707 255.739C98.5663 254.276 98.6677 252.749 98.4688 251.247C98.2699 249.744 97.7747 248.296 97.012 246.987C96.2586 245.672 95.2517 244.519 94.0496 243.596C92.8476 242.673 91.4743 241.997 90.0093 241.608C89.0357 241.347 88.0322 241.214 87.0241 241.214M87.0282 260.94C86.3104 260.94 85.5958 260.845 84.9027 260.659C83.8633 260.383 82.8889 259.903 82.036 259.249C81.1831 258.594 80.4686 257.776 79.9339 256.844C79.3932 255.914 79.0421 254.887 78.9011 253.821C78.7601 252.755 78.832 251.672 79.1125 250.634C79.677 248.539 81.0498 246.753 82.9298 245.668C84.8097 244.583 87.0434 244.288 89.1409 244.847C91.237 245.411 93.0237 246.783 94.109 248.662C95.1943 250.542 95.4896 252.775 94.93 254.871C94.6539 255.91 94.1744 256.884 93.5193 257.737C92.8642 258.589 92.0465 259.303 91.1135 259.838C89.8723 260.558 88.4631 260.937 87.0282 260.938M87.0236 245.319C85.3871 245.321 83.7966 245.861 82.4982 246.857C81.1997 247.853 80.2655 249.248 79.8401 250.828C79.585 251.77 79.5195 252.753 79.6474 253.721C79.7752 254.689 80.094 255.621 80.5851 256.465C81.0706 257.312 81.7193 258.054 82.4936 258.648C83.2679 259.243 84.1525 259.678 85.0962 259.928C86.0386 260.183 87.0223 260.248 87.9901 260.121C88.958 259.993 89.8908 259.674 90.7346 259.183C91.5817 258.698 92.3241 258.049 92.9189 257.276C93.5138 256.502 93.9492 255.617 94.2 254.674C94.7079 252.771 94.4398 250.744 93.4544 249.038C92.469 247.331 90.8469 246.086 88.9439 245.574C88.3171 245.405 87.6709 245.32 87.0218 245.319" fill="#49497C"/>
    <path d="M191.469 268.394C188.415 267.58 185.163 268.01 182.427 269.59C179.69 271.169 177.691 273.769 176.87 276.82C176.056 279.872 176.486 283.122 178.066 285.858C179.646 288.594 182.247 290.592 185.298 291.413C188.352 292.227 191.603 291.797 194.34 290.218C197.077 288.638 199.075 286.038 199.897 282.988C200.711 279.935 200.281 276.685 198.701 273.949C197.121 271.213 194.52 269.215 191.469 268.394ZM195.929 281.924C195.391 283.923 194.081 285.627 192.288 286.662C190.495 287.697 188.364 287.979 186.363 287.445C184.364 286.907 182.659 285.598 181.624 283.805C180.589 282.013 180.307 279.883 180.84 277.883C181.379 275.884 182.688 274.181 184.482 273.146C186.275 272.111 188.405 271.829 190.406 272.362C192.406 272.9 194.11 274.209 195.145 276.002C196.181 277.794 196.463 279.924 195.929 281.924Z" fill="#49497C"/>
    <path d="M188.38 292.198C187.306 292.197 186.237 292.056 185.2 291.777C183.639 291.362 182.175 290.642 180.894 289.658C179.614 288.674 178.541 287.445 177.738 286.044C176.926 284.649 176.399 283.106 176.187 281.506C175.976 279.905 176.084 278.279 176.505 276.721C177.352 273.573 179.414 270.89 182.238 269.261C185.062 267.631 188.417 267.188 191.567 268.029C194.715 268.876 197.399 270.937 199.029 273.76C200.659 276.582 201.103 279.936 200.262 283.085C199.558 285.698 198.013 288.006 195.865 289.653C193.718 291.3 191.088 292.194 188.381 292.198M188.387 268.365C185.847 268.368 183.378 269.207 181.362 270.753C179.346 272.299 177.896 274.465 177.235 276.917C176.84 278.38 176.738 279.907 176.937 281.41C177.136 282.912 177.631 284.36 178.394 285.67C179.148 286.985 180.154 288.137 181.357 289.061C182.559 289.984 183.932 290.66 185.397 291.049C186.371 291.31 187.374 291.443 188.382 291.444C190.923 291.441 193.391 290.601 195.407 289.055C197.423 287.509 198.873 285.343 199.534 282.89C200.322 279.935 199.906 276.787 198.376 274.138C196.846 271.489 194.327 269.555 191.372 268.76C190.399 268.499 189.396 268.366 188.388 268.366M188.383 288.091C187.668 288.09 186.956 287.996 186.266 287.811C184.17 287.247 182.383 285.875 181.297 283.995C180.212 282.116 179.916 279.883 180.475 277.787C181.04 275.691 182.413 273.905 184.293 272.82C186.173 271.735 188.406 271.44 190.504 271.999C192.6 272.563 194.387 273.935 195.472 275.814C196.558 277.694 196.853 279.927 196.294 282.023C195.825 283.763 194.796 285.3 193.366 286.396C191.936 287.493 190.185 288.088 188.383 288.091ZM188.387 272.473C186.75 272.475 185.16 273.015 183.861 274.011C182.563 275.007 181.629 276.402 181.203 277.982C180.695 279.885 180.963 281.913 181.949 283.619C182.934 285.325 184.556 286.57 186.459 287.082C188.363 287.59 190.391 287.322 192.098 286.337C193.805 285.352 195.051 283.731 195.563 281.828C196.071 279.925 195.803 277.898 194.817 276.191C193.832 274.485 192.21 273.24 190.307 272.728C189.68 272.559 189.034 272.474 188.385 272.473" fill="#49497C"/>
    <path d="M189.521 275.66C188.395 275.361 187.196 275.52 186.187 276.102C185.179 276.684 184.442 277.642 184.138 278.766C183.839 279.892 183.998 281.09 184.58 282.099C185.163 283.107 186.121 283.844 187.246 284.147C188.372 284.447 189.571 284.289 190.58 283.706C191.589 283.124 192.325 282.165 192.628 281.041C192.928 279.915 192.77 278.717 192.187 277.708C191.605 276.699 190.646 275.963 189.521 275.66ZM190.776 280.544C190.605 281.178 190.19 281.719 189.621 282.047C189.052 282.375 188.377 282.464 187.742 282.295C187.108 282.125 186.567 281.709 186.239 281.141C185.911 280.573 185.821 279.897 185.991 279.263C186.161 278.629 186.577 278.088 187.146 277.76C187.714 277.432 188.39 277.342 189.025 277.512C189.659 277.682 190.199 278.098 190.528 278.666C190.856 279.235 190.945 279.91 190.776 280.544Z" fill="#49497C"/>
    <path d="M188.383 284.674C187.966 284.674 187.551 284.619 187.149 284.511C185.927 284.182 184.886 283.382 184.253 282.287C183.621 281.192 183.449 279.891 183.775 278.669C183.935 278.063 184.215 277.495 184.596 276.998C184.978 276.501 185.455 276.085 185.999 275.773C186.541 275.458 187.139 275.254 187.761 275.172C188.382 275.09 189.014 275.131 189.619 275.295C190.84 275.623 191.882 276.423 192.514 277.518C193.147 278.614 193.319 279.915 192.993 281.137C192.72 282.15 192.12 283.046 191.287 283.685C190.454 284.324 189.433 284.671 188.383 284.673M188.383 275.885C187.678 275.886 186.987 276.072 186.378 276.426C185.92 276.688 185.518 277.039 185.197 277.457C184.876 277.875 184.641 278.353 184.505 278.863C184.231 279.892 184.375 280.987 184.908 281.909C185.44 282.831 186.316 283.504 187.344 283.781C188.373 284.056 189.469 283.911 190.391 283.379C191.313 282.847 191.987 281.972 192.265 280.944C192.539 279.915 192.394 278.82 191.862 277.898C191.33 276.976 190.454 276.303 189.426 276.026C189.086 275.934 188.735 275.887 188.383 275.887M188.383 282.758C188.134 282.758 187.886 282.725 187.645 282.66C187.283 282.564 186.943 282.397 186.645 282.168C186.348 281.939 186.099 281.654 185.913 281.328C185.724 281.004 185.602 280.646 185.553 280.275C185.504 279.903 185.529 279.526 185.627 279.164C185.823 278.433 186.302 277.811 186.957 277.432C187.613 277.054 188.391 276.951 189.122 277.146C189.485 277.243 189.825 277.41 190.122 277.639C190.419 277.867 190.668 278.153 190.855 278.478C191.043 278.802 191.165 279.16 191.215 279.532C191.264 279.903 191.239 280.281 191.141 280.643C190.977 281.249 190.619 281.785 190.12 282.167C189.622 282.549 189.011 282.757 188.383 282.758ZM188.383 277.805C187.921 277.805 187.472 277.958 187.106 278.239C186.739 278.521 186.476 278.915 186.356 279.361C186.284 279.627 186.265 279.905 186.301 280.178C186.338 280.451 186.428 280.715 186.566 280.953C186.704 281.192 186.887 281.402 187.106 281.57C187.324 281.738 187.574 281.861 187.841 281.932C188.379 282.075 188.952 282 189.434 281.721C189.916 281.443 190.268 280.985 190.412 280.447C190.484 280.181 190.503 279.903 190.467 279.63C190.431 279.357 190.341 279.093 190.202 278.855C190.065 278.616 189.882 278.406 189.663 278.238C189.444 278.07 189.194 277.947 188.928 277.876C188.751 277.829 188.568 277.805 188.385 277.805" fill="#49497C"/>
    <path d="M88.1573 248.51C87.0315 248.211 85.8331 248.37 84.8242 248.952C83.8154 249.534 83.0785 250.492 82.7749 251.616C82.4755 252.742 82.6343 253.94 83.2168 254.948C83.7992 255.957 84.7577 256.693 85.8824 256.997C87.0081 257.296 88.2066 257.137 89.2154 256.555C90.2242 255.973 90.9611 255.015 91.2647 253.891C91.5651 252.765 91.4066 251.567 90.8241 250.558C90.2415 249.549 89.2824 248.813 88.1573 248.51ZM89.4127 253.394C89.242 254.028 88.8267 254.569 88.258 254.897C87.6892 255.225 87.0133 255.314 86.3788 255.145C85.7447 254.974 85.2042 254.559 84.8758 253.991C84.5474 253.422 84.4579 252.747 84.6269 252.113C84.7977 251.479 85.2131 250.939 85.7818 250.61C86.3505 250.282 87.0262 250.193 87.6608 250.362C88.295 250.532 88.8356 250.947 89.164 251.516C89.4925 252.084 89.5819 252.76 89.4127 253.394Z" fill="#49497C"/>
    <path d="M87.0175 257.524C86.6008 257.524 86.186 257.469 85.7835 257.361C84.5618 257.033 83.5204 256.233 82.8879 255.137C82.2554 254.042 82.0834 252.741 82.4096 251.519C82.7385 250.297 83.5384 249.257 84.634 248.624C85.7296 247.992 87.0314 247.82 88.2537 248.146C88.8597 248.307 89.4277 248.586 89.9249 248.968C90.4221 249.349 90.8386 249.826 91.1503 250.37C91.4656 250.911 91.6702 251.51 91.7524 252.131C91.8345 252.752 91.7925 253.383 91.6288 253.988C91.3556 255.002 90.7561 255.897 89.9229 256.536C89.0896 257.176 88.0689 257.523 87.0186 257.524M87.0186 248.737C86.1343 248.738 85.275 249.03 84.5734 249.569C83.8718 250.107 83.3671 250.861 83.1372 251.714C82.8628 252.743 83.0074 253.838 83.5395 254.76C84.0717 255.682 84.9478 256.355 85.9759 256.633C87.0048 256.907 88.1006 256.763 89.023 256.231C89.9454 255.699 90.6192 254.823 90.8966 253.795C91.0337 253.286 91.0684 252.754 90.9988 252.231C90.9292 251.709 90.7566 251.205 90.491 250.749C90.2288 250.291 89.8783 249.89 89.4598 249.569C89.0414 249.247 88.5633 249.012 88.0533 248.877C87.7145 248.786 87.3653 248.74 87.0146 248.74M87.0146 255.61C86.7641 255.61 86.5148 255.577 86.273 255.512C85.9105 255.415 85.5707 255.248 85.2734 255.019C84.976 254.791 84.727 254.505 84.5409 254.18C84.3523 253.856 84.23 253.498 84.1809 253.126C84.1317 252.754 84.1568 252.377 84.2547 252.015C84.4513 251.284 84.9298 250.662 85.5851 250.284C86.2404 249.905 87.0191 249.802 87.7503 249.997C88.4811 250.194 89.104 250.672 89.4824 251.328C89.8607 251.983 89.9637 252.761 89.7686 253.492C89.6721 253.855 89.5047 254.194 89.2759 254.491C89.0472 254.788 88.7618 255.037 88.4362 255.223C88.0036 255.474 87.5125 255.607 87.0122 255.608M87.0122 250.654C86.5502 250.655 86.1013 250.808 85.7349 251.089C85.3684 251.37 85.1047 251.764 84.9846 252.21C84.9127 252.476 84.8943 252.754 84.9305 253.027C84.9667 253.301 85.0568 253.564 85.1955 253.803C85.3326 254.042 85.5159 254.252 85.7347 254.42C85.9534 254.588 86.2034 254.711 86.47 254.781C86.7364 254.853 87.0142 254.871 87.2877 254.835C87.5611 254.799 87.8247 254.709 88.0632 254.571C88.3024 254.433 88.5121 254.25 88.68 254.031C88.848 253.813 88.9709 253.563 89.0416 253.296C89.1851 252.759 89.1094 252.186 88.8311 251.704C88.5527 251.222 88.0944 250.87 87.5568 250.726C87.3798 250.678 87.1973 250.654 87.014 250.654" fill="#49497C"/>
    <path d="M75.975 190.816C76.0586 190.839 76.145 190.85 76.2316 190.849C76.3575 190.848 76.4819 190.822 76.5979 190.773C76.7138 190.724 76.8189 190.652 76.9072 190.563C76.9955 190.473 77.0652 190.367 77.1124 190.25C77.1596 190.133 77.1833 190.009 77.1823 189.883L76.8271 146.659C76.8263 146.533 76.8006 146.408 76.7516 146.292C76.7025 146.177 76.631 146.071 76.5413 145.983C76.4515 145.895 76.3452 145.825 76.2284 145.778C76.1117 145.731 75.9868 145.707 75.8608 145.708C75.7349 145.709 75.6104 145.735 75.4945 145.784C75.3785 145.833 75.2734 145.905 75.1851 145.995C75.0968 146.085 75.0271 146.191 74.9799 146.308C74.9328 146.424 74.909 146.549 74.9102 146.675L75.2653 189.898C75.2668 190.108 75.337 190.311 75.4652 190.477C75.5934 190.643 75.7725 190.762 75.975 190.816Z" fill="#49497C"/>
    <path d="M76.2225 191.226C76.1062 191.226 75.9903 191.211 75.8779 191.18C75.5959 191.104 75.3466 190.938 75.1679 190.707C74.9891 190.476 74.8908 190.193 74.8878 189.901L74.5332 146.678C74.5305 146.324 74.6685 145.983 74.917 145.731C75.1654 145.478 75.5039 145.335 75.8581 145.332C76.0333 145.33 76.2072 145.363 76.3697 145.428C76.5322 145.494 76.68 145.591 76.8047 145.714C76.9306 145.836 77.0308 145.983 77.0994 146.145C77.168 146.306 77.2037 146.48 77.2044 146.656L77.5596 189.879C77.5623 190.233 77.4244 190.574 77.1759 190.827C76.9275 191.079 76.5889 191.223 76.2347 191.226H76.2225ZM75.8709 146.085H75.8651C75.7884 146.085 75.7125 146.101 75.6418 146.13C75.5711 146.16 75.5069 146.203 75.453 146.257C75.3991 146.312 75.3566 146.377 75.3279 146.448C75.2992 146.519 75.2848 146.595 75.2857 146.671L75.6403 189.895C75.6416 190.022 75.6844 190.145 75.7621 190.246C75.8398 190.346 75.9482 190.419 76.0708 190.452C76.1217 190.465 76.174 190.472 76.2266 190.472C76.3032 190.472 76.3791 190.456 76.4499 190.427C76.5206 190.397 76.5848 190.354 76.6387 190.3C76.6926 190.245 76.7351 190.18 76.7638 190.109C76.7925 190.038 76.8068 189.962 76.8059 189.886L76.4508 146.662C76.4505 146.586 76.435 146.51 76.4051 146.439C76.3753 146.369 76.3317 146.305 76.277 146.251C76.169 146.144 76.0232 146.085 75.8715 146.085" fill="#49497C"/>
    <path d="M64.5037 147.587C64.5873 147.609 64.6737 147.62 64.7603 147.619C64.8862 147.618 65.0106 147.592 65.1265 147.543C65.2424 147.494 65.3476 147.423 65.4358 147.333C65.5241 147.243 65.5939 147.137 65.6411 147.02C65.6883 146.904 65.712 146.779 65.7109 146.653L65.5093 122.063C65.5085 121.937 65.4828 121.813 65.4337 121.697C65.3846 121.581 65.3132 121.476 65.2233 121.387C65.1335 121.299 65.0271 121.229 64.9103 121.182C64.7934 121.135 64.6684 121.112 64.5425 121.113C64.4166 121.114 64.2921 121.14 64.1762 121.189C64.0603 121.238 63.9552 121.309 63.8669 121.399C63.7786 121.489 63.7089 121.595 63.6617 121.712C63.6145 121.828 63.5908 121.953 63.5918 122.079L63.7934 146.669C63.7952 146.878 63.8657 147.081 63.9939 147.247C64.1222 147.413 64.3012 147.532 64.5037 147.587Z" fill="#49497C"/>
    <path d="M64.7512 147.996C64.6348 147.996 64.519 147.981 64.4066 147.951C64.1247 147.875 63.8754 147.709 63.6968 147.478C63.5181 147.247 63.4199 146.964 63.4171 146.672L63.2149 122.082C63.213 121.907 63.2459 121.733 63.3117 121.57C63.3776 121.408 63.475 121.26 63.5984 121.135C63.7211 121.01 63.8676 120.91 64.0292 120.841C64.1907 120.773 64.3643 120.737 64.5398 120.736C64.7153 120.734 64.8894 120.767 65.0521 120.832C65.2148 120.898 65.3628 120.995 65.4876 121.119C65.6132 121.241 65.7132 121.388 65.7817 121.549C65.8503 121.711 65.8859 121.885 65.8867 122.06L66.0889 146.65C66.0908 146.825 66.0579 147 65.9921 147.162C65.9263 147.325 65.8288 147.473 65.7054 147.597C65.5825 147.723 65.4361 147.823 65.2744 147.891C65.1127 147.96 64.939 147.996 64.7634 147.996H64.7512ZM64.552 121.49H64.5462C64.4697 121.49 64.3942 121.506 64.3238 121.536C64.2534 121.566 64.1895 121.609 64.136 121.664C64.0824 121.718 64.04 121.782 64.0114 121.853C63.9828 121.924 63.9684 122 63.9692 122.076L64.1714 146.666C64.1725 146.793 64.2151 146.916 64.2929 147.017C64.3706 147.117 64.4791 147.19 64.6018 147.223C64.6524 147.236 64.7046 147.243 64.757 147.242C64.8335 147.242 64.9091 147.226 64.9795 147.197C65.0499 147.167 65.1137 147.123 65.1672 147.069C65.221 147.015 65.2634 146.95 65.2921 146.879C65.3207 146.809 65.335 146.733 65.334 146.656L65.1324 122.067C65.132 121.99 65.1165 121.915 65.0867 121.844C65.0568 121.774 65.0133 121.71 64.9587 121.656C64.8507 121.549 64.7049 121.49 64.5531 121.49" fill="#49497C"/>
    <path d="M64.7925 151.535C64.6666 151.536 64.5421 151.562 64.4261 151.611C64.3101 151.66 64.205 151.731 64.1167 151.821C64.0284 151.911 63.9587 152.017 63.9115 152.134C63.8643 152.251 63.8407 152.375 63.8418 152.501L63.9466 165.303C63.9484 165.512 64.0189 165.716 64.1471 165.881C64.2754 166.047 64.4545 166.166 64.6569 166.221C64.7407 166.243 64.827 166.254 64.9136 166.253C65.1678 166.251 65.4107 166.148 65.589 165.967C65.7672 165.785 65.8662 165.541 65.8642 165.287L65.7588 152.485C65.7578 152.359 65.732 152.235 65.6829 152.119C65.6338 152.003 65.5623 151.898 65.4726 151.81C65.3828 151.722 65.2766 151.652 65.1599 151.605C65.0432 151.557 64.9184 151.534 64.7925 151.535Z" fill="#49497C"/>
    <path d="M64.9049 166.63C64.7875 166.63 64.6707 166.615 64.5573 166.584C64.2755 166.508 64.0264 166.342 63.8477 166.111C63.6691 165.88 63.5708 165.598 63.5678 165.306L63.463 152.504C63.461 152.329 63.494 152.155 63.5598 151.992C63.6256 151.829 63.723 151.681 63.8465 151.557C63.9692 151.431 64.1156 151.332 64.2772 151.263C64.4388 151.195 64.6123 151.159 64.7879 151.158C64.9633 151.156 65.1373 151.189 65.3 151.255C65.4626 151.321 65.6107 151.418 65.7356 151.541C65.861 151.664 65.9609 151.81 66.0294 151.972C66.0979 152.133 66.1337 152.307 66.1347 152.482L66.2396 165.284C66.2415 165.459 66.2087 165.633 66.1429 165.796C66.077 165.959 65.9795 166.106 65.8561 166.231C65.7334 166.357 65.587 166.456 65.4254 166.525C65.2638 166.593 65.0902 166.629 64.9147 166.63H64.9049ZM64.7966 151.912C64.7201 151.912 64.6445 151.928 64.5741 151.958C64.5037 151.987 64.4399 152.031 64.3864 152.085C64.3328 152.14 64.2904 152.204 64.2618 152.275C64.2332 152.346 64.2188 152.421 64.2196 152.498L64.325 165.299C64.3262 165.426 64.3688 165.549 64.4464 165.65C64.524 165.751 64.6323 165.823 64.7548 165.856C64.8058 165.869 64.8581 165.876 64.9107 165.876C64.9871 165.876 65.0627 165.86 65.1331 165.83C65.2035 165.8 65.2673 165.757 65.3208 165.702C65.3745 165.648 65.4168 165.584 65.4454 165.513C65.4741 165.442 65.4884 165.366 65.4877 165.29L65.3828 152.489C65.3823 152.412 65.3667 152.337 65.3369 152.266C65.3071 152.196 65.2636 152.132 65.209 152.079C65.1552 152.024 65.0909 151.981 65.0199 151.953C64.949 151.924 64.873 151.91 64.7966 151.912Z" fill="#49497C"/>
    <path d="M386.361 292.605H324.826L330.416 227.148H380.77L386.361 292.605Z" fill="#C1BDF2"/>
    <path d="M370.991 223.317C370.132 219.884 368.15 216.836 365.361 214.657C362.571 212.478 359.134 211.292 355.593 211.287C352.053 211.292 348.615 212.478 345.826 214.657C343.037 216.836 341.055 219.884 340.195 223.317C339.883 224.57 339.726 225.857 339.727 227.148H343.724C343.723 225.845 343.938 224.55 344.361 223.317C345.163 220.976 346.677 218.943 348.691 217.503C350.704 216.063 353.117 215.287 355.593 215.284C358.069 215.287 360.483 216.063 362.496 217.503C364.51 218.943 366.023 220.976 366.826 223.317C367.249 224.55 367.464 225.845 367.463 227.148H371.46C371.461 225.857 371.304 224.57 370.991 223.317Z" fill="#8C8CC4"/>
    <path d="M383.555 262.039C383.555 262.039 360.763 285.064 336.867 284.17L336.146 292.605H386.36L383.555 262.039Z" fill="#9494D3"/>
    <path d="M344.361 223.317C343.938 224.55 343.723 225.845 343.724 227.148H339.727C339.726 225.857 339.883 224.57 340.195 223.317H344.361Z" fill="#7B7BBA"/>
    <path d="M371.461 227.148H367.463C367.465 225.845 367.249 224.55 366.826 223.317H370.992C371.304 224.57 371.462 225.857 371.461 227.148Z" fill="#7B7BBA"/>
    <path d="M345.392 257.619C345.392 258.648 344.983 259.635 344.255 260.363C343.527 261.09 342.54 261.499 341.51 261.499C340.481 261.499 339.494 261.09 338.766 260.363C338.038 259.635 337.629 258.648 337.629 257.619C337.629 256.59 338.038 255.603 338.766 254.875C339.494 254.148 340.481 253.739 341.51 253.739C342.54 253.739 343.527 254.148 344.255 254.875C344.983 255.603 345.392 256.59 345.392 257.619Z" fill="#49497C"/>
    <path d="M371.04 257.619C371.04 258.648 370.631 259.635 369.903 260.363C369.175 261.09 368.188 261.499 367.159 261.499C366.129 261.499 365.142 261.09 364.414 260.363C363.686 259.635 363.277 258.648 363.277 257.619C363.277 256.59 363.686 255.603 364.414 254.875C365.142 254.148 366.129 253.739 367.159 253.739C368.188 253.739 369.175 254.148 369.903 254.875C370.631 255.603 371.04 256.59 371.04 257.619Z" fill="#49497C"/>
    <path d="M361.005 266.394H347.662C347.591 266.394 347.52 266.38 347.454 266.353C347.388 266.325 347.327 266.285 347.277 266.234C347.226 266.184 347.186 266.124 347.159 266.058C347.131 265.992 347.117 265.921 347.117 265.849C347.117 265.705 347.175 265.566 347.277 265.464C347.379 265.362 347.518 265.304 347.662 265.304H361.005C361.15 265.304 361.288 265.362 361.391 265.464C361.493 265.566 361.55 265.705 361.55 265.849C361.55 265.921 361.536 265.992 361.509 266.058C361.481 266.124 361.441 266.184 361.391 266.234C361.34 266.285 361.28 266.325 361.214 266.353C361.148 266.38 361.077 266.394 361.005 266.394Z" fill="#49497C"/>
    <mask id="mask0_210_861" style="mask-type:luminance" maskUnits="userSpaceOnUse" x="334" y="264" width="7" height="6">
    <path d="M340.548 264.037H334.807V269.777H340.548V264.037Z" fill="white"/>
    </mask>
    <g mask="url(#mask0_210_861)">
    <path d="M340.548 266.907C340.548 267.668 340.245 268.398 339.707 268.936C339.168 269.474 338.438 269.777 337.677 269.777C336.915 269.776 336.185 269.474 335.647 268.936C335.109 268.397 334.807 267.668 334.807 266.907C334.807 266.146 335.109 265.416 335.647 264.878C336.185 264.34 336.915 264.037 337.677 264.037C338.054 264.037 338.427 264.111 338.775 264.255C339.124 264.4 339.44 264.611 339.707 264.877C339.974 265.144 340.185 265.46 340.329 265.808C340.474 266.156 340.548 266.53 340.548 266.907Z" fill="#CD92F7"/>
    </g>
    <mask id="mask1_210_861" style="mask-type:luminance" maskUnits="userSpaceOnUse" x="368" y="264" width="6" height="6">
    <path d="M373.91 264.037H368.168V269.777H373.91V264.037Z" fill="white"/>
    </mask>
    <g mask="url(#mask1_210_861)">
    <path d="M373.91 266.907C373.91 267.668 373.607 268.398 373.069 268.936C372.53 269.474 371.8 269.777 371.038 269.777C370.277 269.776 369.547 269.474 369.009 268.936C368.47 268.398 368.168 267.668 368.168 266.907C368.168 266.53 368.242 266.157 368.386 265.808C368.531 265.46 368.742 265.144 369.009 264.878C369.275 264.611 369.592 264.4 369.94 264.256C370.288 264.111 370.661 264.037 371.038 264.037C371.415 264.037 371.789 264.111 372.137 264.255C372.486 264.4 372.802 264.611 373.069 264.877C373.335 265.144 373.547 265.46 373.691 265.808C373.836 266.156 373.91 266.53 373.91 266.907Z" fill="#CD92F7"/>
    </g>
    <path d="M282.57 204.053H287.668C287.667 202.392 287.941 200.742 288.479 199.171C289.502 196.188 291.43 193.598 293.996 191.763C296.562 189.928 299.637 188.94 302.791 188.936C305.945 188.941 309.02 189.929 311.585 191.764C314.15 193.599 316.078 196.188 317.1 199.171C317.639 200.742 317.913 202.392 317.911 204.053H323.009C323.011 202.407 322.81 200.768 322.411 199.171C321.316 194.797 318.791 190.913 315.237 188.136C311.683 185.36 307.303 183.849 302.792 183.843C298.281 183.849 293.901 185.36 290.347 188.136C286.792 190.913 284.267 194.797 283.172 199.171C282.774 200.768 282.574 202.407 282.575 204.053" fill="#8C8CC4"/>
    <path d="M317.1 199.171C317.638 200.742 317.912 202.392 317.911 204.053H323.006C323.007 202.407 322.807 200.768 322.408 199.171H317.1Z" fill="#7B7BBA"/>
    <path d="M282.57 204.053H287.668C287.667 202.392 287.941 200.742 288.479 199.171H283.172C282.774 200.768 282.573 202.407 282.574 204.053" fill="#7B7BBA"/>
    <path d="M337.464 204.054H268.111V292.605H337.464V204.054Z" fill="#9694D3"/>
    <path d="M322.218 204.053H252.865V292.605H322.218V204.053Z" fill="#C1BDF2"/>
    <path d="M329.841 204.053H322.219V292.605H329.841V204.053Z" fill="#7B7BBA"/>
    <path d="M267.325 204.053H272.42C272.419 202.392 272.693 200.742 273.231 199.171C274.254 196.188 276.182 193.599 278.747 191.764C281.312 189.929 284.386 188.941 287.541 188.936C290.695 188.94 293.77 189.928 296.336 191.763C298.901 193.598 300.83 196.188 301.852 199.171C302.391 200.742 302.665 202.392 302.663 204.053H307.759C307.76 202.407 307.559 200.768 307.161 199.171C306.066 194.797 303.541 190.913 299.986 188.136C296.432 185.36 292.052 183.849 287.541 183.843C283.03 183.849 278.65 185.36 275.096 188.136C271.542 190.913 269.017 194.797 267.922 199.171C267.523 200.768 267.323 202.407 267.324 204.053" fill="#C1BDF2"/>
    <path d="M301.854 199.171C302.392 200.742 302.666 202.392 302.665 204.053H307.76C307.761 202.407 307.56 200.768 307.162 199.171H301.854Z" fill="#7B7BBA"/>
    <path d="M267.324 204.053H272.419C272.417 202.392 272.692 200.742 273.23 199.171H267.923C267.524 200.768 267.324 202.407 267.325 204.053" fill="#7B7BBA"/>
    <path d="M322.218 213.341C322.218 213.341 321.983 292.604 259.453 292.604H322.218V213.341Z" fill="#9494D3"/>
    <path d="M26.1048 206.443L31.0046 209.122L26.1048 211.8L23.4249 216.698L20.7455 211.8L15.8457 209.122L20.7455 206.443L23.4249 201.545L26.1048 206.443Z" fill="#C1BDF2"/>
    <path d="M11.2079 223.692L13.6578 225.032L11.2079 226.371L9.86798 228.82L8.52804 226.371L6.07812 225.032L8.52804 223.692L9.86798 221.243L11.2079 223.692Z" fill="#C1BDF2"/>
    <path d="M371.518 73.0818L376.779 75.9582L371.518 78.8346L368.641 84.094L365.763 78.8346L360.502 75.9582L365.763 73.0818L368.641 67.8224L371.518 73.0818Z" fill="#C1BDF2"/>
    <path d="M34.0306 292.605H226.478C227.014 292.654 227.51 292.913 227.856 293.325C228.203 293.737 228.374 294.269 228.332 294.805C228.373 295.341 228.202 295.872 227.855 296.284C227.509 296.695 227.014 296.953 226.478 297.003H34.0961C33.5767 296.968 33.09 296.738 32.7343 296.358C32.3785 295.978 32.1803 295.477 32.1797 294.957C32.1369 294.34 32.3294 293.731 32.7184 293.25C32.8766 293.054 33.0761 292.894 33.3029 292.783C33.5297 292.672 33.7781 292.612 34.0306 292.608" fill="#49497C"/>
    <path d="M402 294.804C402 295.386 401.769 295.945 401.357 296.357C400.944 296.769 400.385 297 399.803 297H237.103C236.52 296.999 235.961 296.768 235.549 296.356C235.137 295.944 234.905 295.385 234.904 294.802C234.904 294.219 235.136 293.66 235.548 293.247C235.96 292.835 236.519 292.603 237.103 292.602H399.803C400.386 292.603 400.945 292.835 401.357 293.248C401.769 293.66 402 294.219 402 294.802" fill="#49497C"/>
    <path d="M21.1139 296.999H1.9705C1.41849 296.967 0.901567 296.718 0.532546 296.307C0.163524 295.895 -0.0276415 295.354 0.00082562 294.802C-0.0276415 294.25 0.163524 293.709 0.532546 293.298C0.901567 292.886 1.41849 292.637 1.9705 292.605H21.1139C21.666 292.637 22.183 292.886 22.552 293.298C22.9211 293.709 23.1121 294.25 23.0835 294.802C23.1121 295.354 22.9211 295.895 22.552 296.307C22.183 296.719 21.666 296.968 21.1139 296.999Z" fill="#49497C"/>
    <path d="M80.7266 62.1577V48.8899C80.7264 48.4056 80.5339 47.9412 80.1912 47.5988C79.8486 47.2564 79.3839 47.064 78.8994 47.064C78.415 47.064 77.9502 47.2564 77.6076 47.5988C77.265 47.9412 77.0724 48.4056 77.0723 48.8899V62.1577C77.0723 62.6421 77.2648 63.1067 77.6075 63.4492C77.9501 63.7917 78.4149 63.9842 78.8994 63.9842C79.384 63.9842 79.8487 63.7917 80.1914 63.4492C80.534 63.1067 80.7266 62.6421 80.7266 62.1577Z" fill="#C1BDF2"/>
    <path d="M63.8814 78.9968C63.8814 78.5124 63.6889 78.0478 63.3463 77.7052C63.0036 77.3627 62.5389 77.1703 62.0543 77.1703H48.7823C48.2977 77.1703 47.8329 77.3627 47.4903 77.7052C47.1476 78.0478 46.9551 78.5124 46.9551 78.9968C46.9551 79.4812 47.1476 79.9458 47.4903 80.2883C47.8329 80.6308 48.2977 80.8232 48.7823 80.8232H62.0543C62.5389 80.8232 63.0036 80.6308 63.3463 80.2883C63.6889 79.9458 63.8814 79.4812 63.8814 78.9968Z" fill="#C1BDF2"/>
    <path d="M68.5489 66.8217C68.5493 66.5818 68.5021 66.3443 68.4103 66.1226C68.3184 65.901 68.1836 65.6997 68.0136 65.5303L58.8965 56.4159C58.5537 56.0736 58.089 55.8813 57.6045 55.8813C57.12 55.8813 56.6554 56.0736 56.3127 56.4159C56.143 56.5855 56.0084 56.7869 55.9165 57.0085C55.8247 57.2301 55.7773 57.4677 55.7773 57.7076C55.7773 57.9475 55.8247 58.185 55.9165 58.4066C56.0084 58.6283 56.143 58.8296 56.3127 58.9992L65.4299 68.1131C65.5995 68.2828 65.8009 68.4173 66.0226 68.5091C66.2443 68.6009 66.4818 68.6482 66.7218 68.6482C66.9617 68.6482 67.1993 68.6009 67.4209 68.5091C67.6426 68.4173 67.844 68.2828 68.0136 68.1131C68.1836 67.9437 68.3183 67.7424 68.4102 67.5208C68.5021 67.2992 68.5492 67.0616 68.5489 66.8217Z" fill="#C1BDF2"/>
    <path d="M279.095 247.51C279.095 248.019 278.994 248.524 278.799 248.994C278.604 249.465 278.318 249.893 277.958 250.253C277.598 250.613 277.17 250.899 276.699 251.094C276.228 251.289 275.723 251.39 275.213 251.39C274.704 251.39 274.199 251.289 273.728 251.094C273.257 250.899 272.829 250.613 272.469 250.253C272.108 249.893 271.823 249.465 271.627 248.994C271.432 248.524 271.332 248.019 271.332 247.51C271.332 246.481 271.741 245.494 272.469 244.766C273.197 244.038 274.184 243.63 275.213 243.63C276.243 243.63 277.23 244.038 277.958 244.766C278.686 245.494 279.095 246.481 279.095 247.51Z" fill="#49497C"/>
    <path d="M304.743 247.51C304.743 248.019 304.643 248.524 304.448 248.994C304.253 249.465 303.967 249.893 303.606 250.253C303.246 250.613 302.818 250.899 302.347 251.094C301.876 251.289 301.372 251.39 300.862 251.39C300.352 251.39 299.847 251.289 299.376 251.094C298.906 250.899 298.478 250.613 298.117 250.253C297.757 249.893 297.471 249.465 297.276 248.994C297.081 248.524 296.98 248.019 296.98 247.51C296.98 246.481 297.389 245.494 298.117 244.766C298.845 244.038 299.832 243.63 300.862 243.63C301.891 243.63 302.879 244.038 303.606 244.766C304.334 245.494 304.743 246.481 304.743 247.51Z" fill="#49497C"/>
    <path d="M294.708 256.285H281.365C281.221 256.285 281.082 256.227 280.98 256.125C280.878 256.023 280.82 255.884 280.82 255.74C280.82 255.595 280.878 255.457 280.98 255.354C281.082 255.252 281.221 255.195 281.365 255.195H294.708C294.853 255.195 294.991 255.252 295.094 255.354C295.196 255.457 295.253 255.595 295.253 255.74C295.253 255.884 295.196 256.023 295.094 256.125C294.991 256.227 294.853 256.285 294.708 256.285Z" fill="#49497C"/>
    <mask id="mask2_210_861" style="mask-type:luminance" maskUnits="userSpaceOnUse" x="268" y="253" width="7" height="7">
    <path d="M274.249 253.928H268.508V259.667H274.249V253.928Z" fill="white"/>
    </mask>
    <g mask="url(#mask2_210_861)">
    <path d="M274.249 256.797C274.249 257.558 273.947 258.288 273.409 258.826C272.87 259.365 272.14 259.667 271.379 259.667C270.617 259.667 269.887 259.365 269.349 258.827C268.81 258.288 268.508 257.558 268.508 256.797C268.508 256.42 268.582 256.047 268.726 255.699C268.871 255.351 269.082 255.034 269.349 254.768C269.615 254.502 269.932 254.29 270.28 254.146C270.629 254.002 271.002 253.928 271.379 253.928C272.14 253.928 272.87 254.23 273.409 254.768C273.947 255.306 274.249 256.036 274.249 256.797Z" fill="#CD92F7"/>
    </g>
    <mask id="mask3_210_861" style="mask-type:luminance" maskUnits="userSpaceOnUse" x="301" y="253" width="7" height="7">
    <path d="M307.613 253.928H301.871V259.667H307.613V253.928Z" fill="white"/>
    </mask>
    <g mask="url(#mask3_210_861)">
    <path d="M307.613 256.797C307.613 257.558 307.31 258.288 306.772 258.827C306.233 259.365 305.503 259.667 304.742 259.667C303.98 259.667 303.25 259.365 302.712 258.826C302.174 258.288 301.871 257.558 301.871 256.797C301.871 256.036 302.174 255.306 302.712 254.768C303.25 254.23 303.98 253.928 304.742 253.928C305.119 253.928 305.492 254.002 305.84 254.146C306.189 254.29 306.505 254.502 306.772 254.768C307.038 255.034 307.25 255.351 307.394 255.699C307.538 256.047 307.613 256.42 307.613 256.797Z" fill="#CD92F7"/>
    </g>
    <mask id="mask4_210_861" style="mask-type:luminance" maskUnits="userSpaceOnUse" x="322" y="284" width="16" height="9">
    <path d="M337.464 284.719H322.219V292.605H337.464V284.719Z" fill="white"/>
    </mask>
    <g mask="url(#mask4_210_861)">
    <path d="M322.219 292.605H337.464L329.841 284.719L322.219 292.605Z" fill="#9797C4"/>
    </g>
    </g>
    <defs>
    <clipPath id="clip0_210_861">
    <rect width="402" height="297" fill="white"/>
    </clipPath>
    </defs>
    </svg>
    